# xmcd
#
# Track frame offsets:
#	182
#	13377
#	23455
#	36837
#	48595
#	61687
#	72812
#	85755
#	97692
#	106975
#	122705
#	134447
#	147930
#	159412
#	170510
#	181165
#	192640
#	207405
#	219217
#	234645
#	244517
#	262555
#	279570
#	292062
#	305662
#
# Disc length: 4290 seconds
#
# Revision: 3
# Processed by: cddbd v1.4PL0 Copyright (c) Steve Scherf et al.
# Submitted via: MusicWizard 6.0.2
#
DISCID=5e10c019
DTITLE=Various Artist - 100 Soul Hits  Vol. 1
DYEAR=1991
DGENRE=Soul
TTITLE0=Sam and Dave - Soul Man
TTITLE1=James Brown - Papa's Got A Brand New Bag
TTITLE2=Eddie Floyd - Knock On Wood
TTITLE3=The Drifters - Under The Boardwalk
TTITLE4=Fontella Bass - Rescue ME
TTITLE5=Brook Benton - It's Just A Matter Of Time
TTITLE6=Doby Gray - The In Crowd
TTITLE7=Maxine Brown - Oh no! Not My Baby
TTITLE8=Gladys Knight and The Pips - Every Beat Of My Heart
TTITLE9=George McCrae - Rock Your Baby
TTITLE10=Robert Parker - Barefootin'
TTITLE11=Percy Sledge - When A Man Loves A Woman
TTITLE12=Mel and Tim - Backfield In A Motion
TTITLE13=Sam and Dave - You Don't Know What You Mean To Me
TTITLE14=Soul Survivors - Expressway To Your Heart
TTITLE15=The Drifters - Save The Last Dance For Me
TTITLE16=Sam and Dave - When Something Is Wrong With My Baby
TTITLE17=Wilson Pickett - If You Need Me
TTITLE18=Rufus Thomas - Do The Funky Chicken
TTITLE19=James Brown - Please, Please, Please
TTITLE20=Brook Benton - Rainy Night In Georgia
TTITLE21=Solomon Burke - Hold On I'm Coming
TTITLE22=Eddie Floyd - Bring It On Home To Me
TTITLE23=Ben E. King - Stand By Me
TTITLE24=James Brown - I Got The Feeling
EXTD=
EXTT0=
EXTT1=
EXTT2=
EXTT3=
EXTT4=
EXTT5=
EXTT6=
EXTT7=
EXTT8=
EXTT9=
EXTT10=
EXTT11=
EXTT12=
EXTT13=
EXTT14=
EXTT15=
EXTT16=
EXTT17=
EXTT18=
EXTT19=
EXTT20=
EXTT21=
EXTT22=
EXTT23=
EXTT24=
PLAYORDER=
